<?xml version="1.0" encoding="UTF-8" standalone="no"?>
<!-- Generator: Adobe Illustrator 19.1.0, SVG Export Plug-In . SVG Version: 6.00 Build 0)  -->

<svg
   xmlns:dc="http://purl.org/dc/elements/1.1/"
   xmlns:cc="http://creativecommons.org/ns#"
   xmlns:rdf="http://www.w3.org/1999/02/22-rdf-syntax-ns#"
   xmlns:svg="http://www.w3.org/2000/svg"
   xmlns="http://www.w3.org/2000/svg"
   xmlns:sodipodi="http://sodipodi.sourceforge.net/DTD/sodipodi-0.dtd"
   xmlns:inkscape="http://www.inkscape.org/namespaces/inkscape"
   version="1.1"
   id="Layer_1"
   x="0px"
   y="0px"
   viewBox="0 0 155.48167 60.000002"
   xml:space="preserve"
   inkscape:version="0.91 r13725"
   sodipodi:docname="gihub-to-gocd.svg"
   width="155.48167"
   height="60"><metadata
     id="metadata4333"><rdf:RDF><cc:Work
         rdf:about=""><dc:format>image/svg+xml</dc:format><dc:type
           rdf:resource="http://purl.org/dc/dcmitype/StillImage" /><dc:title></dc:title></cc:Work></rdf:RDF></metadata><defs
     id="defs4331" /><sodipodi:namedview
     pagecolor="#ffffff"
     bordercolor="#666666"
     borderopacity="1"
     objecttolerance="10"
     gridtolerance="10"
     guidetolerance="10"
     inkscape:pageopacity="0"
     inkscape:pageshadow="2"
     inkscape:window-width="1448"
     inkscape:window-height="857"
     id="namedview4329"
     showgrid="false"
     fit-margin-top="0"
     fit-margin-left="0"
     fit-margin-right="0"
     fit-margin-bottom="0"
     inkscape:zoom="1"
     inkscape:cx="67.465771"
     inkscape:cy="-6.6584829"
     inkscape:window-x="61"
     inkscape:window-y="0"
     inkscape:window-maximized="0"
     inkscape:current-layer="Layer_1" /><style
     type="text/css"
     id="style4156">
	.st0{fill:none;stroke:#1C425C;stroke-width:3;stroke-linecap:round;stroke-linejoin:round;stroke-miterlimit:10;}
	.st1{fill:#F7A600;stroke:#1C425C;stroke-width:3;stroke-miterlimit:10;}
	.st2{fill:#00BFC0;stroke:#1C425C;stroke-width:3;stroke-miterlimit:10;}
	.st3{fill:#9534A0;stroke:#1C425C;stroke-width:3;stroke-miterlimit:10;}
	.st4{fill:#FFFFFF;}
	.st5{fill:none;stroke:#1C425C;stroke-width:2;stroke-linecap:round;stroke-linejoin:round;stroke-miterlimit:10;}
	.st6{fill:#1C425C;}
	.st7{fill:#9534A0;}
	.st8{fill:#FFFAD5;}
	.st9{fill:none;stroke:#1C425C;stroke-width:5.3764;stroke-linecap:round;stroke-linejoin:round;stroke-miterlimit:10;}
	.st10{fill:none;stroke:#1C425C;stroke-linecap:round;stroke-linejoin:round;stroke-miterlimit:10;}
	.st11{fill:#DE572F;stroke:#1C425C;stroke-width:3;stroke-linejoin:round;stroke-miterlimit:10;}
	.st12{fill:#00BFC0;}
	.st13{fill:#F7A600;stroke:#1C425C;stroke-miterlimit:10;}
	.st14{clip-path:url(#SVGID_2_);fill:#F7A600;stroke:#1C425C;stroke-miterlimit:10;}
	.st15{fill:#00BFC0;stroke:#1C425C;stroke-width:2;stroke-miterlimit:10;}
	.st16{fill:#F7A600;stroke:#1C425C;stroke-width:2;stroke-miterlimit:10;}
	.st17{fill:#9534A0;stroke:#1C425C;stroke-width:2;stroke-miterlimit:10;}
	.st18{fill:#DB9E36;stroke:#1C425C;stroke-width:2;stroke-miterlimit:10;}
	.st19{fill:#DE572F;stroke:#1C425C;stroke-width:2;stroke-miterlimit:10;}
	.st20{fill:#FEFEFE;stroke:#1C425C;stroke-width:2;stroke-miterlimit:10;}
	.st21{fill:none;stroke:#9534A0;stroke-width:3;stroke-linejoin:round;}
	.st22{fill:none;stroke:#9534A0;stroke-width:3;stroke-linejoin:round;stroke-dasharray:7.9084,7.9084;}
	.st23{fill:none;stroke:#9534A0;stroke-width:3;stroke-linejoin:round;stroke-dasharray:7.0692,7.0692;}
	.st24{fill:none;stroke:#FF530D;stroke-width:3;stroke-linejoin:round;stroke-dasharray:7.0692,7.0692;}
	.st25{fill:none;}
	.st26{fill:#FF530D;}
	.st27{fill:#00A39F;stroke:#1C425C;stroke-width:3;stroke-miterlimit:10;}
	.st28{fill:none;stroke:#1C425C;stroke-width:3;stroke-linecap:round;stroke-linejoin:round;}
	.st29{fill:#F7A600;}
	.st30{fill:none;stroke:#9534A0;stroke-width:3.262;stroke-linejoin:round;stroke-miterlimit:10;stroke-dasharray:3.262,3.262;}
	.st31{fill:none;stroke:#A6D3EB;stroke-width:3.262;stroke-linejoin:round;}
	.st32{fill:none;stroke:#1C425C;stroke-width:3.262;stroke-linecap:round;stroke-linejoin:round;stroke-miterlimit:10;}
	.st33{fill:#00BFC0;stroke:#023550;stroke-width:4;stroke-miterlimit:10;}
	.st34{fill:none;stroke:#023550;stroke-width:5;stroke-linecap:round;stroke-miterlimit:10;}
	.st35{fill:#023550;}
	.st36{fill:none;stroke:#1C425C;stroke-width:1.348;stroke-linecap:round;stroke-linejoin:round;}
	.st37{fill:none;stroke:#1C425C;stroke-linecap:round;stroke-linejoin:round;}
	.st38{fill:#00BFC0;stroke:#1C425C;stroke-width:1.3481;stroke-miterlimit:10;}
	.st39{fill:#F7A600;stroke:#1C425C;stroke-width:1.3481;stroke-miterlimit:10;}
	.st40{fill:#9534A0;stroke:#1C425C;stroke-width:1.3481;stroke-linejoin:round;stroke-miterlimit:10;}
	.st41{fill:#00BFC0;stroke:#1C425C;stroke-miterlimit:10;}
	.st42{fill:#9534A0;stroke:#1C425C;stroke-miterlimit:10;}
	.st43{fill:#00BFC0;stroke:#1C425C;stroke-width:0.3211;stroke-linejoin:round;stroke-miterlimit:10;}
	.st44{fill:#9534A0;stroke:#1C425C;stroke-width:0.5;stroke-miterlimit:10;}
	.st45{fill:#F7A600;stroke:#1C425C;stroke-width:0.3211;stroke-miterlimit:10;}
	.st46{fill:#211F1F;}
	.st47{fill:#99D9F1;}
	.st48{fill:#7BB9E7;}
	.st49{fill:#232121;}
	.st50{fill:#9AD9F1;}
	.st51{fill:#1C1A1A;}
	.st52{fill:#030304;}
	.st53{fill:#242222;}
	.st54{fill:#222020;}
	.st55{fill:#171414;}
	.st56{fill:#171515;}
	.st57{fill:#181616;}
	.st58{fill:#131111;}
	.st59{fill:#F4CAAF;}
	.st60{fill:#C49A84;}
	.st61{fill:#181718;}
	.st62{fill:#D1A58D;}
	.st63{fill:#181819;}
	.st64{fill:#171718;}
	.st65{fill:#FDFDFD;}
	.st66{fill:#FEFEFE;}
	.st67{fill:#1D1A1A;}
	.st68{fill:#1B1818;}
	.st69{fill:#A1E4FE;}
	.st70{fill:#97D6ED;}
	.st71{fill:#96D4EB;}
	.st72{fill:#97D5ED;}
	.st73{fill:#98D7EE;}
	.st74{fill:#98D7EF;}
	.st75{fill:#91CDE3;}
	.st76{fill:#AF5D50;}
	.st77{fill:#AF5C4F;}
	.st78{fill:#AE5C4F;}
	.st79{fill:#FDFCFC;}
	.st80{fill:none;stroke:#00BFC0;stroke-miterlimit:10;}
	.st81{fill:#9534A0;stroke:#1C425C;stroke-width:0.4299;stroke-linejoin:round;stroke-miterlimit:10;}
	.st82{fill:#00BFC0;stroke:#1C425C;stroke-width:1.3387;stroke-miterlimit:10;}
	.st83{fill:#9534A0;stroke:#1C425C;stroke-width:0.4075;stroke-miterlimit:10;}
	.st84{fill:#F7A600;stroke:#1C425C;stroke-width:0.4075;stroke-miterlimit:10;}
	.st85{fill:#00BFC0;stroke:#1C425C;stroke-width:0.4075;stroke-linejoin:round;stroke-miterlimit:10;}
	.st86{fill:#00BFC0;stroke:#1C425C;stroke-width:0.7137;stroke-miterlimit:10;}
	.st87{fill:#9534A0;stroke:#1C425C;stroke-width:0.7137;stroke-linejoin:round;stroke-miterlimit:10;}
	.st88{fill:#FFFFFF;stroke:#1C425C;stroke-width:0.3827;stroke-miterlimit:10;}
	.st89{fill:#9534A0;stroke:#1C425C;stroke-width:1.284;stroke-linejoin:round;stroke-miterlimit:10;}
	.st90{fill:#010101;}
	.st91{fill:#020202;}
	.st92{fill:#F2F2F2;stroke:#1C425C;stroke-width:1.9094;stroke-linejoin:round;stroke-miterlimit:10;}
	.st93{fill:#F2F2F2;stroke:#023550;stroke-width:2;stroke-miterlimit:10;}
	.st94{fill:none;stroke:#028A9E;stroke-width:2.185;stroke-linecap:round;stroke-miterlimit:10;}
	.st95{fill:#028A9E;}
	.st96{fill:none;stroke:#046D70;stroke-width:2.185;stroke-linecap:round;stroke-miterlimit:10;}
	.st97{fill:#046D70;}
	.st98{fill:none;stroke:#04BFBF;stroke-width:2.185;stroke-linecap:round;stroke-miterlimit:10;}
	.st99{fill:#04BFBF;}
	.st100{fill:#66A6BC;stroke:#023550;stroke-width:1.0085;stroke-linecap:round;stroke-linejoin:round;stroke-miterlimit:10;}
	.st101{fill:#9FE5F7;stroke:#023550;stroke-width:1.0085;stroke-linecap:round;stroke-linejoin:round;stroke-miterlimit:10;}
	.st102{fill:#75BCDA;stroke:#023550;stroke-width:1.0085;stroke-linecap:round;stroke-linejoin:round;stroke-miterlimit:10;}
	.st103{fill:#F2F2F2;stroke:#023550;stroke-width:1.0085;stroke-linecap:round;stroke-linejoin:round;stroke-miterlimit:10;}
	.st104{fill:#9534A0;stroke:#1C425C;stroke-width:2;stroke-linejoin:round;stroke-miterlimit:10;}
	.st105{fill:none;stroke:#1C425C;stroke-width:1.909;stroke-linejoin:round;stroke-miterlimit:10;stroke-dasharray:5,5,5,5,5,5;}
	.st106{fill:#BABABA;}
	.st107{fill:none;stroke:#1C425C;stroke-width:2;stroke-miterlimit:10;}
	.st108{fill:#FFFFFF;stroke:#1C425C;stroke-width:2;stroke-linejoin:round;stroke-miterlimit:10;}
	.st109{fill:none;stroke:#1C425C;stroke-width:2;stroke-linejoin:round;}
	.st110{clip-path:url(#SVGID_4_);fill:#DB9E36;stroke:#1C425C;stroke-width:2;stroke-miterlimit:10;}
	.st111{fill:#DE572F;stroke:#1C425C;stroke-width:0.5;stroke-miterlimit:10;}
	.st112{fill:#439F83;stroke:#1C425C;stroke-width:0.5;stroke-miterlimit:10;}
	.st113{fill:#DB9E36;stroke:#1C425C;stroke-width:0.5;stroke-miterlimit:10;}
	.st114{fill:#439F83;stroke:#1C425C;stroke-width:1.3387;stroke-miterlimit:10;}
	.st115{fill:#DE572F;stroke:#1C425C;stroke-width:0.3211;stroke-linejoin:round;stroke-miterlimit:10;}
	.st116{fill:#439F83;stroke:#1C425C;stroke-width:0.3211;stroke-miterlimit:10;}
	.st117{fill:#0C3034;}
</style><g
     id="y06fNW.tif"
     transform="translate(-75.6,-2.6000019)"><g
       id="g4159"><path
         class="st46"
         d="m 98.4,32.1 c 0,0 0.1,0 0.1,-0.1 0,-0.2 -0.2,-0.4 -0.2,-0.7 -0.1,-0.4 -0.4,-0.2 -0.6,-0.2 -1.5,-0.1 -3,0 -4.5,0 -0.2,0.1 -0.4,0 -0.6,0.1 -0.2,0 -0.3,0 -0.5,0 -0.2,0.1 -0.4,0 -0.5,0.1 -0.1,0 -0.3,0 -0.4,0 -0.2,0.1 -0.4,0 -0.5,0.1 -0.1,0 -0.2,0 -0.2,0 -0.1,0.1 -0.3,0 -0.5,0.1 -0.8,0.1 -1.5,0.2 -2.3,0.4 0,0 0,-0.1 0,-0.1 1.3,-0.3 2.7,-0.5 4.1,-0.6 0.2,-0.1 0.5,0 0.7,-0.1 0.2,0 0.3,0 0.5,0 0.4,-0.1 0.7,0 1.1,-0.1 1.4,-0.1 2.8,-0.1 4.2,0 -0.2,-0.7 -0.4,-1.3 -0.5,-2 -0.4,-2.7 -0.5,-5.3 1,-7.8 0.3,-0.5 0.6,-1 1,-1.4 0.1,-0.1 0.1,-0.2 0.1,-0.4 -0.6,-1.9 -0.4,-3.8 0.2,-5.7 0.1,-0.3 0.4,-0.3 0.6,-0.3 0.8,0 1.6,0.2 2.3,0.5 1.2,0.4 2.2,1.1 3.3,1.8 0.2,0.1 0.3,0.2 0.5,0.1 2.4,-0.6 4.9,-0.8 7.4,-0.6 1,0.1 2.1,0.2 3.1,0.5 0.3,0.1 0.5,0 0.7,-0.1 1.3,-0.8 2.6,-1.6 4.1,-1.9 0.5,-0.1 1,-0.2 1.5,-0.2 0.2,0 0.3,0.1 0.4,0.3 0.3,0.9 0.6,1.9 0.6,2.9 0,0.3 0,0.5 0,0.8 0,0.5 -0.1,1 -0.2,1.5 -0.1,0.3 0,0.4 0.2,0.7 1.3,1.4 2.2,3.1 2.4,5.1 0.2,2.1 0.1,4.2 -0.4,6.2 0,0 0,0.1 0,0.2 1.5,-0.1 2.9,-0.1 4.4,0 0.4,0.1 0.8,0 1.1,0.1 0.2,0 0.3,0 0.5,0 0.2,0.1 0.4,0 0.6,0.1 0.1,0 0.3,0 0.4,0 0.1,0.1 0.3,0 0.5,0.1 1.1,0.1 2.2,0.2 3.2,0.6 -0.5,-0.1 -1.1,-0.2 -1.6,-0.3 -0.1,-0.1 -0.3,0 -0.4,-0.1 -0.1,0 -0.1,0 -0.2,0 -0.2,-0.1 -0.4,0 -0.5,-0.1 -0.1,0 -0.2,0 -0.2,0 -0.2,-0.1 -0.4,0 -0.5,-0.1 -0.1,0 -0.2,0 -0.3,0 -0.2,-0.1 -0.4,0 -0.6,-0.1 -0.2,0 -0.4,0 -0.6,0 -0.2,-0.1 -0.4,0 -0.6,-0.1 -1.6,0 -3.2,-0.1 -4.8,0 -0.1,0 -0.3,-0.1 -0.4,0 -0.3,0.9 -0.3,0.9 0.6,0.9 0.1,0 0.2,0 0.3,0 0.2,0.1 0.4,0 0.5,0.1 1,0 2.1,0.1 3.1,0.3 0.2,0.1 0.4,0 0.5,0.1 0.1,0 0.1,0 0.2,0 0.1,0.1 0.3,0 0.5,0.1 1,0.2 2,0.3 3,0.5 0.7,0.1 1.4,0.4 2.1,0.5 -0.5,0.1 -0.8,-0.1 -1.2,-0.2 -1.5,-0.4 -2.9,-0.6 -4.4,-0.8 -0.7,-0.1 -1.4,-0.2 -2,-0.3 -0.2,-0.1 -0.4,0 -0.6,-0.1 -0.1,0 -0.3,0 -0.4,0 -0.3,-0.1 -0.6,0 -1,-0.1 -0.2,0 -0.3,0 -0.5,0 -0.4,0 -0.7,-0.1 -1.1,0 -0.7,1.8 -2.1,2.9 -3.7,3.7 -1.5,0.7 -3.2,1.1 -4.8,1.3 -0.3,0 -0.6,0 -0.9,0.2 -0.2,0.2 -0.4,0.1 -0.7,0.1 -2.2,0 -4.4,0 -6.6,0 -0.3,0 -0.6,0 -0.9,-0.1 -0.6,-0.2 -1.3,-0.2 -1.9,-0.3 -2.1,-0.4 -4.2,-1.1 -5.9,-2.5 -0.7,-0.6 -1.4,-1.4 -1.8,-2.3 -0.1,-0.2 -0.2,0 -0.3,-0.1 -0.3,-0.2 -0.3,-0.2 -0.3,-0.2 0,0 0,0 0,0 z"
         id="path4161"
         inkscape:connector-curvature="0"
         style="fill:#211f1f" /><path
         class="st46"
         d="m 118.1,40 c 0.1,0.3 0.1,0.6 0.1,0.9 0,1.8 0,3.6 0,5.4 0,0.4 0,0.8 0.1,1.2 0.1,0.2 0.1,0.4 0.2,0.6 0.2,0.6 0.5,1.1 1.1,1.3 0.2,0.1 0.3,0.2 0.4,0.3 0.2,0.3 0.2,0.5 -0.1,0.8 -0.7,0.3 -1.4,0 -2.1,-0.1 -0.1,0 -0.2,-0.1 -0.3,-0.1 -0.8,-0.4 -1.4,-0.9 -1.6,-1.8 0,-0.2 -0.1,-0.3 0,-0.5 0,-1.7 0,-3.4 0,-5.1 -0.2,-0.5 -0.1,-1.1 -0.4,-1.5 -0.1,-0.1 -0.1,-0.3 -0.3,-0.3 0,2.5 0,5 0,7.5 0,0.1 0,0.2 0,0.2 0.1,0.2 0,0.4 0,0.6 0,0.7 0.2,1.4 0.9,1.8 0.2,0.5 0.2,0.6 -0.2,0.9 -0.1,0.1 -0.3,0.1 -0.5,0.1 -0.8,-0.1 -1.5,-0.4 -2.1,-0.9 -0.7,-0.6 -0.9,-1.3 -0.9,-2.2 0,-1.1 0,-2.3 0,-3.4 0,-1.6 0,-3.3 0,-4.9 0,-0.2 0.1,-0.6 -0.2,-0.6 -0.2,0 -0.2,0.4 -0.2,0.6 0,1.6 0,3.3 0,4.9 0,1.2 0,2.3 0,3.5 0,0.8 -0.3,1.5 -0.9,2.1 -0.6,0.5 -1.3,0.8 -2.1,0.9 -0.1,0 -0.2,0 -0.4,0 -0.6,-0.2 -0.6,-0.5 -0.3,-1.1 0.6,-0.4 0.8,-1 0.8,-1.8 0,-1.2 0,-2.3 0,-3.5 0,-1.6 0,-3.2 -0.1,-4.8 -0.3,0.4 -0.4,0.9 -0.4,1.4 0,1 0,1.9 0,2.9 0,0.2 0,0.4 0,0.6 0,0.7 0,1.4 0,2.1 -0.1,1.1 -0.7,1.8 -1.7,2.2 -0.7,0.3 -1.5,0.4 -2.3,0.3 -0.2,-0.1 -0.4,-0.2 -0.4,-0.4 0,-0.3 0.2,-0.4 0.4,-0.6 0.1,-0.1 0.2,-0.1 0.3,-0.1 0.9,-0.4 1.3,-1.1 1.2,-2 0,-0.3 -0.1,-0.7 0.1,-1 0,-1.2 0,-2.3 0,-3.5 -0.2,-0.4 -0.1,-0.7 -0.1,-1.1 0,-0.5 0,-1 0.2,-1.5 0.2,-0.3 0.2,-0.7 0.4,-1 0.2,-0.3 0.3,-0.7 0.6,-0.9 0.6,-0.5 1.4,-0.5 2.1,-0.5 1.3,-0.1 2.5,-0.1 3.8,-0.1 0.6,0 1.1,0.1 1.6,0.2 1.6,0 2.7,0.7 3.3,2 z"
         id="path4163"
         inkscape:connector-curvature="0"
         style="fill:#211f1f" /><path
         class="st47"
         d="m 119.9,50.3 c 0.2,-0.3 0.2,-0.6 -0.2,-0.7 -0.9,-0.4 -1.3,-1.1 -1.5,-2 -0.1,-0.1 -0.1,-0.2 -0.1,-0.3 0,-2 0,-3.9 0,-5.9 0,-0.1 0,-0.2 0.1,-0.3 0.1,0.2 0.1,0.4 0.1,0.5 0,1.3 0,2.7 0,4 0,0.4 0.2,0.5 0.5,0.6 1.5,0.2 3,0.6 4.4,1.2 1,0.4 2,0.9 2.7,1.8 0.7,0.9 0.7,1.9 -0.1,2.7 -0.8,0.9 -1.8,1.4 -2.9,1.8 -1.5,0.6 -3,0.9 -4.6,1.2 -0.1,-1 -0.1,-1.9 0,-2.9 0.1,-0.8 0.6,-1.5 1.4,-1.7 0.1,0.2 0.2,0.2 0.2,0 z"
         id="path4165"
         inkscape:connector-curvature="0"
         style="fill:#99d9f1" /><path
         class="st47"
         d="m 106.4,46.4 c 0,0.5 0,1 0,1.5 -0.1,0.7 -0.5,1.2 -1.1,1.6 -0.1,0.1 -0.3,0.1 -0.4,0.2 -0.2,0.1 -0.4,0.2 -0.4,0.5 0,0.2 0.2,0.3 0.3,0.4 1,0.3 1.6,1.1 1.6,2.2 0,0.6 0,1.3 0,1.9 0,0.2 0,0.3 -0.1,0.5 -2.3,-0.4 -4.6,-0.9 -6.5,-2.4 -0.6,-0.5 -1.2,-1 -1.2,-1.9 0,-0.8 0.4,-1.4 0.9,-1.8 1.3,-1.2 3,-1.7 4.7,-2.1 0.8,-0.4 1.5,-0.6 2.2,-0.6 z"
         id="path4167"
         inkscape:connector-curvature="0"
         style="fill:#99d9f1" /><path
         class="st46"
         d="m 106.3,42.9 c -0.5,0.2 -1,0.2 -1.5,0.2 -0.3,0 -0.5,0 -0.8,0 -2,-0.1 -3.4,-1 -4.4,-2.7 -0.3,-0.5 -0.6,-1.1 -1,-1.6 -0.4,-0.5 -0.8,-0.9 -1.4,-1.1 -0.3,-0.1 -0.5,-0.3 -0.8,-0.5 -0.1,-0.1 -0.3,-0.3 -0.2,-0.5 0.1,-0.2 0.3,-0.3 0.5,-0.3 0.5,0 1,0 1.4,0.1 1,0.4 1.7,1 2.3,1.9 0.3,0.5 0.7,1 1.1,1.4 1.3,1.1 2.8,1.1 4.4,0.6 0.2,-0.1 0.4,-0.1 0.5,-0.2 0.1,0.1 0,0.3 0,0.4 -0.3,0.2 -0.3,0.2 0,0.7 -0.1,0.5 0,1.1 -0.1,1.6 z"
         id="path4169"
         inkscape:connector-curvature="0"
         style="fill:#211f1f" /><path
         class="st48"
         d="m 119.9,50.3 c 0,0.2 -0.2,0.2 -0.3,0.3 -0.9,0.4 -1.3,1.1 -1.3,2.1 0,0.6 0,1.3 0,1.9 0,0.2 0,0.3 -0.1,0.4 -0.8,0.1 -1.5,0.3 -2.3,0.3 -0.1,-0.1 -0.1,-0.3 -0.1,-0.4 0,-0.8 0,-1.6 0,-2.4 0,-0.2 0,-0.3 0.1,-0.4 0.3,-0.2 0.3,-0.5 0.2,-0.8 0.3,-0.6 0.8,-1 1.5,-1.2 0.5,0.2 1.1,0.3 1.6,0.3 0.2,0.1 0.5,0.1 0.7,-0.1 z"
         id="path4171"
         inkscape:connector-curvature="0"
         style="fill:#7bb9e7" /><path
         class="st48"
         d="m 106.4,55 c 0,-0.8 0,-1.5 0,-2.3 0,-1 -0.5,-1.8 -1.4,-2.2 0,0 -0.1,-0.1 -0.1,-0.1 0.8,0.1 1.5,-0.1 2.3,-0.3 0.7,0.2 1.2,0.5 1.4,1.2 -0.3,0.5 -0.2,0.7 0.3,0.9 0.1,1 0,1.9 0,2.9 0,0.1 0,0.2 -0.1,0.3 -0.8,-0.1 -1.6,-0.2 -2.4,-0.4 z"
         id="path4173"
         inkscape:connector-curvature="0"
         style="fill:#7bb9e7" /><path
         class="st48"
         d="m 109.2,52.2 c 0.7,-0.2 1.4,-0.4 2,-0.9 0.2,0.1 0.3,0.2 0.4,0.4 0.3,0.6 0.6,1.2 0.5,1.9 0,0.4 0.1,0.9 0.1,1.3 0,0.2 0,0.4 -0.1,0.5 -0.9,0 -1.7,0 -2.6,-0.1 -0.1,-0.1 -0.1,-0.3 -0.1,-0.5 0,-0.8 0.1,-1.6 -0.2,-2.4 0,0 0,-0.1 0,-0.2 z"
         id="path4175"
         inkscape:connector-curvature="0"
         style="fill:#7bb9e7" /><path
         class="st48"
         d="m 113.6,51.4 c 0.6,0.4 1.3,0.7 2,0.8 -0.1,1 -0.2,2 -0.3,3.1 0,0.1 0,0.1 -0.1,0.1 -0.8,0 -1.6,0.1 -2.5,0.1 -0.2,-0.4 -0.1,-0.9 -0.1,-1.4 0,-0.8 0.1,-1.7 0.6,-2.4 0.1,-0.1 0.2,-0.2 0.4,-0.3 z"
         id="path4177"
         inkscape:connector-curvature="0"
         style="fill:#7bb9e7" /><path
         class="st47"
         d="m 113.6,51.4 c -0.9,1.2 -0.9,2.7 -0.8,4.2 -0.2,0 -0.5,0 -0.7,0 -0.1,-1 0,-2.1 -0.3,-3.1 -0.1,-0.4 -0.4,-0.7 -0.5,-1 0.6,-0.6 0.9,-1.4 0.9,-2.3 0,-1.1 0,-2.2 0,-3.2 0.2,-0.2 0.4,-0.1 0.6,0 0,1.1 0,2.2 0,3.4 -0.2,0.7 0.1,1.4 0.8,2 z"
         id="path4179"
         inkscape:connector-curvature="0"
         style="fill:#99d9f1" /><path
         d="m 118.1,40 c -0.2,0.1 -0.1,-0.1 -0.2,-0.1 -0.8,-1.4 -2.1,-1.9 -3.6,-2.1 -1.1,-0.1 -2.2,-0.1 -3.3,-0.1 -1,0 -2.1,0 -3.1,0.3 -0.2,0.1 -0.4,0.1 -0.6,0.2 0.2,-0.4 0.5,-0.6 0.9,-0.8 0.3,-0.2 0.6,0 0.9,0 2.4,0 4.8,0 7.2,0 0,0 0.1,0 0.1,0 0.9,0.7 1.5,1.5 1.7,2.6 z"
         id="path4181"
         inkscape:connector-curvature="0" /><path
         class="st47"
         d="m 115.2,55.5 c 0,-0.9 -0.1,-1.8 0.2,-2.7 0.1,-0.2 0.1,-0.4 0.2,-0.6 0.1,0 0.3,-0.1 0.4,-0.1 0,1.1 0,2.2 0,3.2 -0.3,0.1 -0.6,0.1 -0.8,0.2 z"
         id="path4183"
         inkscape:connector-curvature="0"
         style="fill:#99d9f1" /><path
         class="st47"
         d="m 109.2,52.2 c 0.4,1 0.2,2.1 0.3,3.2 -0.2,0 -0.5,0 -0.7,0 0,-0.9 0,-1.8 0,-2.7 0,-0.1 -0.1,-0.3 0.1,-0.4 0.1,-0.1 0.2,-0.1 0.3,-0.1 z"
         id="path4185"
         inkscape:connector-curvature="0"
         style="fill:#99d9f1" /><path
         class="st49"
         d="m 97.5,32.2 c -0.6,0.2 -1.2,0.1 -1.8,0.2 -2.6,0.2 -5.1,0.6 -7.6,1.3 -0.1,0 -0.3,0.2 -0.5,0 0.5,-0.3 1,-0.3 1.6,-0.4 2.7,-0.6 5.4,-1 8.2,-1.1 0,0 0.1,0 0.1,0 0.1,0 0,0 0,0 z"
         id="path4187"
         inkscape:connector-curvature="0"
         style="fill:#232121" /><path
         class="st50"
         d="m 96.7,37.7 c 0.1,0.5 0.3,0.9 0.4,1.4 0.1,0.3 -0.1,0.5 -0.4,0.5 -0.3,0 -0.5,-0.2 -0.4,-0.5 0.1,-0.5 0.2,-1 0.4,-1.4 0,0 0,0 0,0 z"
         id="path4189"
         inkscape:connector-curvature="0"
         style="fill:#9ad9f1" /><path
         class="st51"
         d="m 118.3,41.2 c 0,1.9 0,3.8 0,5.7 0,0.2 0,0.5 0,0.7 -0.1,-0.1 -0.1,-0.2 -0.1,-0.3 0,-2 0,-4 0,-6.1 0,-0.1 0,-0.2 0.1,-0.3 0,0.1 0,0.2 0,0.3 z"
         id="path4191"
         inkscape:connector-curvature="0"
         style="fill:#1c1a1a" /><path
         class="st52"
         d="m 106.3,40.7 c 0,-0.1 0.1,-0.3 0.1,-0.4 0,0 0,0 0.1,0 0.1,0.9 -0.1,1.8 -0.1,2.7 -0.1,0 -0.1,0 -0.2,0 0,-0.6 0,-1.1 0,-1.7 -0.1,-0.3 0,-0.5 0.1,-0.6 z"
         id="path4193"
         inkscape:connector-curvature="0"
         style="fill:#030304" /><path
         class="st53"
         d="m 131.9,31 c -0.4,0 -0.8,0.1 -1.1,-0.1 0.4,0.1 0.7,0 1.1,0.1 z"
         id="path4195"
         inkscape:connector-curvature="0"
         style="fill:#242222" /><path
         class="st54"
         d="m 125.8,32.2 c 0.4,-0.2 0.7,-0.1 1.1,0 -0.3,0 -0.7,0 -1.1,0 z"
         id="path4197"
         inkscape:connector-curvature="0"
         style="fill:#222020" /><path
         class="st55"
         d="m 97.5,32.2 c 0,0 0.1,-0.1 0.1,-0.1 0.3,0 0.6,0 0.9,0 0,0 0,0.1 0,0.1 -0.2,0.1 -0.5,0 -0.7,0.1 -0.2,-0.1 -0.2,-0.1 -0.3,-0.1 z"
         id="path4199"
         inkscape:connector-curvature="0"
         style="fill:#171414" /><path
         class="st53"
         d="m 93.9,31 c -0.3,0.1 -0.7,0 -1.1,0.1 0.4,-0.2 0.7,-0.1 1.1,-0.1 z"
         id="path4201"
         inkscape:connector-curvature="0"
         style="fill:#242222" /><path
         class="st49"
         d="m 97.7,32.2 c 0.2,-0.1 0.5,0 0.7,-0.1 0.1,0 0.3,0 0.3,0.1 -0.3,0 -0.6,0.1 -1,0 z"
         id="path4203"
         inkscape:connector-curvature="0"
         style="fill:#232121" /><path
         class="st54"
         d="m 127.4,32.2 c 0.3,0 0.7,-0.1 1,0.1 -0.3,0 -0.7,0.1 -1,-0.1 z"
         id="path4205"
         inkscape:connector-curvature="0"
         style="fill:#222020" /><path
         class="st56"
         d="m 103.9,43.1 c 0.3,-0.1 0.5,-0.1 0.8,0 -0.2,0 -0.5,0 -0.8,0 z"
         id="path4207"
         inkscape:connector-curvature="0"
         style="fill:#171515" /><path
         class="st57"
         d="m 124.5,17.3 c -0.1,-0.3 -0.1,-0.5 0,-0.8 0,0.3 0,0.6 0,0.8 z"
         id="path4209"
         inkscape:connector-curvature="0"
         style="fill:#181616" /><path
         class="st53"
         d="m 92.4,31.1 c -0.2,0.1 -0.5,0 -0.7,0.1 0.2,-0.2 0.4,-0.2 0.7,-0.1 z"
         id="path4211"
         inkscape:connector-curvature="0"
         style="fill:#242222" /><path
         class="st53"
         d="m 131.5,31.1 c 0.2,0 0.4,-0.1 0.6,0.1 -0.2,0 -0.4,0 -0.6,-0.1 z"
         id="path4213"
         inkscape:connector-curvature="0"
         style="fill:#242222" /><path
         class="st53"
         d="m 92.5,31.2 c 0.2,-0.1 0.4,-0.1 0.6,-0.1 -0.1,0.1 -0.3,0.1 -0.6,0.1 z"
         id="path4215"
         inkscape:connector-curvature="0"
         style="fill:#242222" /><path
         class="st53"
         d="m 133,31.1 c -0.2,0 -0.4,0.1 -0.6,-0.1 0.2,0 0.4,0 0.6,0.1 z"
         id="path4217"
         inkscape:connector-curvature="0"
         style="fill:#242222" /><path
         class="st54"
         d="m 128.8,32.3 c 0.2,0 0.4,-0.1 0.6,0.1 -0.2,0 -0.4,0 -0.6,-0.1 z"
         id="path4219"
         inkscape:connector-curvature="0"
         style="fill:#222020" /><path
         class="st53"
         d="m 91.5,31.3 c 0.2,-0.1 0.4,-0.1 0.5,-0.1 -0.1,0.1 -0.3,0.1 -0.5,0.1 z"
         id="path4221"
         inkscape:connector-curvature="0"
         style="fill:#242222" /><path
         class="st53"
         d="m 132.7,31.2 c 0.2,0 0.4,-0.1 0.6,0.1 -0.2,0 -0.4,0 -0.6,-0.1 z"
         id="path4223"
         inkscape:connector-curvature="0"
         style="fill:#242222" /><path
         class="st53"
         d="m 90.6,31.4 c 0.2,-0.1 0.4,-0.1 0.5,-0.1 -0.2,0.1 -0.3,0.1 -0.5,0.1 z"
         id="path4225"
         inkscape:connector-curvature="0"
         style="fill:#242222" /><path
         class="st54"
         d="m 127.7,32.1 c -0.2,0 -0.4,0.1 -0.5,-0.1 0.2,0.1 0.4,0.1 0.5,0.1 z"
         id="path4227"
         inkscape:connector-curvature="0"
         style="fill:#222020" /><path
         class="st53"
         d="m 133.6,31.3 c 0.2,0 0.4,-0.1 0.5,0.1 -0.2,0 -0.4,0 -0.5,-0.1 z"
         id="path4229"
         inkscape:connector-curvature="0"
         style="fill:#242222" /><path
         class="st53"
         d="m 134.3,31.4 c 0.2,0 0.4,-0.1 0.5,0.1 -0.1,0 -0.3,0 -0.5,-0.1 z"
         id="path4231"
         inkscape:connector-curvature="0"
         style="fill:#242222" /><path
         class="st54"
         d="m 131.4,32.5 c -0.2,0 -0.4,0.1 -0.5,-0.1 0.1,0 0.3,0 0.5,0.1 z"
         id="path4233"
         inkscape:connector-curvature="0"
         style="fill:#222020" /><path
         class="st53"
         d="m 135,31.5 c 0.1,0 0.3,-0.1 0.4,0.1 -0.1,0 -0.3,0 -0.4,-0.1 z"
         id="path4235"
         inkscape:connector-curvature="0"
         style="fill:#242222" /><path
         class="st54"
         d="m 132,32.6 c -0.2,0 -0.3,0.1 -0.5,-0.1 0.2,0 0.4,0 0.5,0.1 z"
         id="path4237"
         inkscape:connector-curvature="0"
         style="fill:#222020" /><path
         class="st53"
         d="m 89.9,31.5 c 0.1,-0.1 0.3,-0.1 0.5,-0.1 -0.2,0.1 -0.3,0.1 -0.5,0.1 z"
         id="path4239"
         inkscape:connector-curvature="0"
         style="fill:#242222" /><path
         class="st58"
         d="m 126.3,31.1 c 0.1,-0.2 0.3,-0.1 0.4,0 -0.2,0 -0.3,0 -0.4,0 z"
         id="path4241"
         inkscape:connector-curvature="0"
         style="fill:#131111" /><path
         class="st53"
         d="m 133.9,31.2 c -0.2,0 -0.3,0.1 -0.5,-0.1 0.2,0 0.3,0 0.5,0.1 z"
         id="path4243"
         inkscape:connector-curvature="0"
         style="fill:#242222" /><path
         class="st59"
         d="m 123.3,29.2 c 0.1,1.2 -0.1,2.3 -0.5,3.5 -0.8,1.9 -2.3,2.8 -4.2,3.3 -1.2,0.3 -2.5,0.3 -3.8,0.4 -0.7,0.1 -1.3,0 -2,0 -0.3,0 -0.6,0 -0.9,0 -0.5,0 -0.9,0 -1.4,0 -1.7,-0.1 -3.5,-0.2 -5.2,-0.8 -1.8,-0.6 -3.3,-1.7 -3.9,-3.6 -0.3,-1 -0.5,-1.9 -0.3,-3 0.3,-1.7 1.3,-2.9 2.8,-3.6 0.5,-0.2 1,-0.4 1.5,-0.4 1.3,-0.1 2.5,0 3.8,0.1 1.6,0.2 3.3,0.2 4.9,0.1 1.3,-0.1 2.5,-0.2 3.8,-0.3 2.7,0 4.5,1.2 5.3,3.9 0,0.1 0,0.3 0.1,0.4 z"
         id="path4245"
         inkscape:connector-curvature="0"
         style="fill:#f4caaf" /><path
         class="st60"
         d="m 123.3,29.2 c -0.3,-0.9 -0.7,-1.8 -1.3,-2.6 -0.8,-0.9 -1.8,-1.4 -2.9,-1.5 -1.7,-0.2 -3.4,0.1 -5.1,0.2 -1.2,0.1 -2.3,0.1 -3.5,0 -1.6,-0.1 -3.3,-0.3 -4.9,-0.2 -2,0.1 -3.6,1.9 -4.1,3.7 0,0.1 0,0.2 -0.1,0.2 0.1,-1.1 0.6,-2 1.3,-2.8 0.9,-1.1 2.2,-1.6 3.6,-1.6 1.5,-0.1 2.9,0.1 4.4,0.2 0.3,0 0.5,0 0.8,0 0.6,0.1 1.2,0.1 1.8,0 1.3,-0.1 2.5,-0.2 3.8,-0.3 0.5,-0.1 1.1,-0.1 1.6,0 0.6,0.1 1.1,0.2 1.7,0.3 1.3,0.7 2.9,2.8 2.9,4.4 z"
         id="path4247"
         inkscape:connector-curvature="0"
         style="fill:#c49a84" /><path
         class="st61"
         d="m 112.8,36.3 c 0.7,0 1.3,0 2,0 -0.7,0.2 -1.3,0.1 -2,0 z"
         id="path4249"
         inkscape:connector-curvature="0"
         style="fill:#181718" /><path
         class="st62"
         d="m 113.1,24.8 c -0.6,0.1 -1.2,0.1 -1.8,0 0.6,0 1.2,0 1.8,0 z"
         id="path4251"
         inkscape:connector-curvature="0"
         style="fill:#d1a58d" /><path
         class="st63"
         d="m 118.4,24.6 c -0.5,0 -1.1,0 -1.6,0 0.5,-0.2 1.1,-0.2 1.6,0 z"
         id="path4253"
         inkscape:connector-curvature="0"
         style="fill:#181819" /><path
         class="st64"
         d="m 110.6,36.3 c 0.5,0 0.9,0 1.4,0 -0.5,0.1 -1,0.2 -1.4,0 z"
         id="path4255"
         inkscape:connector-curvature="0"
         style="fill:#171718" /><path
         class="st47"
         d="m 108.6,51.3 c -0.4,-0.5 -0.9,-0.9 -1.4,-1.2 1.2,-0.6 1.7,-1.6 1.6,-2.9 0,-0.4 0,-0.8 0,-1.2 0.2,-0.2 0.4,-0.2 0.7,-0.1 0,1.4 0,2.8 0,4.1 0,0.7 -0.4,1 -0.9,1.3 z"
         id="path4257"
         inkscape:connector-curvature="0"
         style="fill:#99d9f1" /><path
         class="st47"
         d="m 117.6,50.1 c -0.6,0.3 -1.1,0.7 -1.5,1.2 -0.7,-0.4 -0.9,-1.1 -0.9,-1.8 0,-1 0,-2 0,-3 0,-0.2 0,-0.4 0.1,-0.5 0.2,-0.2 0.5,-0.2 0.7,0 0.1,0.7 0,1.4 0,2.1 0.1,1 0.7,1.6 1.6,2 z"
         id="path4259"
         inkscape:connector-curvature="0"
         style="fill:#99d9f1" /><path
         class="st65"
         d="m 115.9,45.9 c -0.2,0 -0.4,0 -0.7,0 -0.1,0 -0.1,0 -0.1,-0.1 0,-1.6 0,-3.2 0,-4.8 0,-0.1 -0.1,-0.2 0.1,-0.3 0.4,0.4 0.5,0.9 0.6,1.4 0,0.2 0.1,0.4 0.1,0.7 0.1,1 0.2,2.1 0,3.1 z"
         id="path4261"
         inkscape:connector-curvature="0"
         style="fill:#fdfdfd" /><path
         class="st66"
         d="m 112.6,45.9 c -0.2,0 -0.4,0 -0.6,0 0,-1.8 0,-3.5 0,-5.3 0,-0.2 0,-0.5 0.3,-0.5 0.3,0 0.3,0.2 0.3,0.5 0,1.3 0,2.7 0,4 0.1,0.4 0,0.8 0,1.3 z"
         id="path4263"
         inkscape:connector-curvature="0"
         style="fill:#fefefe" /><path
         class="st66"
         d="m 109.5,45.9 c -0.2,0 -0.5,0.1 -0.7,0.1 0,-1.2 0,-2.5 0,-3.7 0,-0.7 0.3,-1.2 0.7,-1.6 0,1.8 0,3.5 0,5.2 z"
         id="path4265"
         inkscape:connector-curvature="0"
         style="fill:#fefefe" /><path
         class="st67"
         d="m 115.2,40.8 c -0.1,0.7 0,1.3 0,2 0,1.1 0,2.1 0,3.2 0,1 0.1,2 0,3 -0.1,-0.1 -0.1,-0.3 -0.1,-0.4 0,-2.4 0,-4.8 0,-7.3 0,-0.2 -0.1,-0.4 0.1,-0.5 z"
         id="path4267"
         inkscape:connector-curvature="0"
         style="fill:#1d1a1a" /><path
         class="st68"
         d="m 115.9,45.9 c 0,-1.1 0,-2.1 0,-3.2 0.1,0.1 0.1,0.2 0.1,0.3 0,1.6 0,3.1 0,4.7 0,0.1 0,0.2 -0.1,0.3 0.1,-0.6 0,-1.3 0,-2.1 z"
         id="path4269"
         inkscape:connector-curvature="0"
         style="fill:#1b1818" /><path
         class="st69"
         d="m 115.2,48.9 c 0,-1 0,-2 0,-3 0,0 0,0 0.1,0 0,1 0,2.1 0,3.1 0,0.1 0.1,0.3 -0.1,0.4 0,-0.1 0,-0.3 0,-0.5 z"
         id="path4271"
         inkscape:connector-curvature="0"
         style="fill:#a1e4fe" /><path
         class="st70"
         d="m 104.8,41.5 c -0.2,0 -0.4,0 -0.4,-0.3 0,-0.2 0.2,-0.3 0.4,-0.3 0.2,0 0.4,0 0.4,0.3 0,0.3 -0.2,0.3 -0.4,0.3 z"
         id="path4273"
         inkscape:connector-curvature="0"
         style="fill:#97d6ed" /><path
         class="st71"
         d="m 101.1,39.9 c 0,0.2 -0.1,0.3 -0.2,0.3 -0.3,0 -0.4,-0.2 -0.4,-0.5 0,-0.1 0.1,-0.3 0.2,-0.2 0.3,0 0.4,0.2 0.4,0.4 z"
         id="path4275"
         inkscape:connector-curvature="0"
         style="fill:#96d4eb" /><path
         class="st72"
         d="m 101.9,41.1 c -0.2,0 -0.4,-0.1 -0.4,-0.3 0,-0.2 0.1,-0.3 0.2,-0.3 0.2,0 0.4,0.1 0.5,0.4 0.1,0.1 0,0.2 -0.3,0.2 z"
         id="path4277"
         inkscape:connector-curvature="0"
         style="fill:#97d5ed" /><path
         class="st73"
         d="m 103.7,41.3 c -0.1,0.2 -0.2,0.3 -0.4,0.3 -0.2,0 -0.4,-0.1 -0.4,-0.3 0,-0.2 0.2,-0.2 0.3,-0.2 0.2,-0.1 0.4,-0.1 0.5,0.2 z"
         id="path4279"
         inkscape:connector-curvature="0"
         style="fill:#98d7ee" /><path
         class="st71"
         d="m 100.2,38.8 c 0,0.2 -0.1,0.2 -0.2,0.2 -0.2,0 -0.3,-0.2 -0.4,-0.4 0,-0.1 0.1,-0.3 0.2,-0.2 0.3,0 0.4,0.2 0.4,0.4 z"
         id="path4281"
         inkscape:connector-curvature="0"
         style="fill:#96d4eb" /><path
         class="st74"
         d="m 99,37.5 c 0.2,0 0.3,0.1 0.3,0.3 0,0.1 -0.1,0.2 -0.2,0.2 -0.2,0 -0.3,-0.1 -0.4,-0.3 0.1,-0.1 0.2,-0.2 0.3,-0.2 z"
         id="path4283"
         inkscape:connector-curvature="0"
         style="fill:#98d7ef" /><path
         class="st71"
         d="m 106.3,40.7 c 0,0.2 0,0.3 -0.1,0.5 -0.2,0 -0.4,0 -0.4,-0.3 0.1,-0.2 0.3,-0.3 0.5,-0.2 z"
         id="path4285"
         inkscape:connector-curvature="0"
         style="fill:#96d4eb" /><path
         class="st75"
         d="m 98.5,37.2 c 0,0.1 -0.1,0.2 -0.2,0.2 -0.1,0 -0.3,-0.1 -0.3,-0.3 0,-0.1 0.1,-0.2 0.2,-0.1 0.2,0 0.3,0 0.3,0.2 z"
         id="path4287"
         inkscape:connector-curvature="0"
         style="fill:#91cde3" /><path
         class="st66"
         d="m 108.5,30.3 c -0.1,0.7 -0.3,1.8 -1.2,2.5 -0.9,0.6 -1.8,0.5 -2.5,-0.4 -1.1,-1.4 -1.1,-3.7 0,-5.1 0.9,-1.1 2.1,-1 3,0.1 0.5,0.7 0.8,1.5 0.7,2.9 z"
         id="path4289"
         inkscape:connector-curvature="0"
         style="fill:#fefefe" /><path
         class="st66"
         d="m 120.9,29.8 c 0,1 -0.3,2 -1,2.7 -0.8,0.9 -2.1,0.8 -2.8,-0.2 -1,-1.4 -1.1,-3.5 -0.1,-4.9 0.8,-1.2 2.3,-1.2 3.1,0 0.6,0.8 0.8,1.6 0.8,2.4 z"
         id="path4291"
         inkscape:connector-curvature="0"
         style="fill:#fefefe" /><path
         class="st76"
         d="m 112.2,35.2 c -0.5,0 -1.1,-0.4 -1.3,-0.8 0,-0.1 -0.1,-0.2 0,-0.3 0.1,-0.1 0.2,0 0.3,0.1 0.6,0.9 1.3,0.9 1.9,0 0.1,-0.1 0.1,-0.2 0.3,-0.1 0.2,0.1 0.1,0.2 0.1,0.3 -0.1,0.4 -0.7,0.8 -1.3,0.8 z"
         id="path4293"
         inkscape:connector-curvature="0"
         style="fill:#af5d50" /><path
         class="st77"
         d="m 112.8,32.8 c 0,0.3 -0.2,0.5 -0.6,0.5 -0.3,0 -0.6,-0.2 -0.6,-0.6 0,-0.3 0.3,-0.6 0.6,-0.6 0.4,0.1 0.6,0.4 0.6,0.7 z"
         id="path4295"
         inkscape:connector-curvature="0"
         style="fill:#af5c4f" /><path
         class="st78"
         d="m 108,30.3 c 0,0.3 -0.2,0.8 -0.5,1.2 -0.5,0.8 -1.5,0.8 -2.1,0.1 -0.7,-0.9 -0.7,-2.5 0,-3.3 0.6,-0.7 1.5,-0.7 2.1,0 0.4,0.5 0.5,1.1 0.5,2 z"
         id="path4297"
         inkscape:connector-curvature="0"
         style="fill:#ae5c4f" /><path
         class="st78"
         d="m 119.9,29.9 c 0,0.6 -0.1,1.1 -0.5,1.6 -0.5,0.7 -1.4,0.8 -2,0.1 -0.8,-0.9 -0.8,-2.7 0,-3.5 0.6,-0.6 1.4,-0.6 1.9,0.1 0.4,0.5 0.6,1.1 0.6,1.7 z"
         id="path4299"
         inkscape:connector-curvature="0"
         style="fill:#ae5c4f" /><path
         class="st79"
         d="m 105.4,28.9 c 0,-0.3 0.1,-0.4 0.4,-0.4 0.3,0 0.4,0.1 0.4,0.4 0,0.3 -0.2,0.5 -0.4,0.5 -0.3,-0.1 -0.4,-0.2 -0.4,-0.5 z"
         id="path4301"
         inkscape:connector-curvature="0"
         style="fill:#fdfcfc" /><path
         class="st79"
         d="m 118.3,28.9 c 0,0.2 -0.1,0.3 -0.4,0.3 -0.2,0 -0.4,-0.1 -0.4,-0.4 0,-0.2 0.2,-0.4 0.4,-0.4 0.2,0.1 0.4,0.3 0.4,0.5 z"
         id="path4303"
         inkscape:connector-curvature="0"
         style="fill:#fdfcfc" /></g></g><g
     id="g4305"
     transform="translate(78.781671,-2.6000019)"><g
       id="g4307"><path
         d="m 49.7,45.6 c -0.4,1 -0.9,2 -1.7,2.7 -0.7,0.8 -1.6,1.3 -2.6,1.7 -1,0.4 -2.1,0.6 -3.3,0.6 -1.9,0 -3.5,-0.5 -4.9,-1.4 C 35.9,48.3 35,47 34.6,45.4 l 2.7,0 c 0.3,0.6 0.6,1.1 1,1.4 0.4,0.4 0.8,0.6 1.3,0.8 0.5,0.2 0.9,0.3 1.3,0.4 0.4,0.1 0.8,0.1 1.1,0.1 1,0 1.9,-0.2 2.6,-0.5 0.7,-0.4 1.3,-0.8 1.7,-1.4 0.4,-0.6 0.8,-1.2 1,-1.9 0.2,-0.7 0.3,-1.4 0.3,-2.2 l 0,-1.7 c -0.6,0.8 -1.3,1.4 -2.3,2 -0.9,0.5 -2,0.8 -3.1,0.8 C 41,43.2 40,43 39,42.6 c -1,-0.4 -1.8,-1 -2.5,-1.8 -0.7,-0.8 -1.3,-1.6 -1.7,-2.7 -0.4,-1 -0.6,-2.1 -0.6,-3.2 0,-1.2 0.2,-2.2 0.6,-3.3 0.4,-1 1,-1.9 1.7,-2.7 0.7,-0.8 1.5,-1.3 2.5,-1.8 1,-0.5 2,-0.7 3.2,-0.7 1.2,0 2.2,0.3 3.2,0.9 1,0.6 1.7,1.3 2.3,2.1 l 0,-2.5 2.5,0 0,15.2 c 0.1,1.2 -0.1,2.4 -0.5,3.5 z m -2.4,-13 c -0.3,-0.7 -0.7,-1.4 -1.2,-1.9 -0.5,-0.5 -1.1,-1 -1.7,-1.3 -0.6,-0.3 -1.3,-0.5 -2.1,-0.5 -0.7,0 -1.4,0.2 -2.1,0.5 -0.7,0.3 -1.2,0.7 -1.7,1.3 -0.5,0.5 -0.8,1.2 -1.1,1.9 -0.3,0.7 -0.4,1.5 -0.4,2.3 0,0.8 0.1,1.6 0.4,2.3 0.3,0.7 0.7,1.3 1.1,1.9 0.5,0.5 1,1 1.7,1.3 0.7,0.3 1.4,0.5 2.1,0.5 0.7,0 1.4,-0.2 2.1,-0.5 0.6,-0.3 1.2,-0.7 1.7,-1.3 0.5,-0.5 0.9,-1.2 1.2,-1.9 0.3,-0.7 0.4,-1.5 0.4,-2.3 0,-0.8 -0.1,-1.6 -0.4,-2.3 z"
         id="path4309"
         inkscape:connector-curvature="0" /><path
         d="m 63.3,27.2 c 1,0.4 1.8,1 2.5,1.8 0.7,0.8 1.3,1.7 1.7,2.7 0.4,1 0.6,2.1 0.6,3.3 0,1.2 -0.2,2.2 -0.6,3.2 -0.4,1 -1,1.9 -1.7,2.6 -0.7,0.8 -1.6,1.3 -2.5,1.8 -1,0.4 -2,0.6 -3.2,0.6 -1.1,0 -2.2,-0.2 -3.1,-0.6 -1,-0.4 -1.8,-1 -2.5,-1.8 -0.7,-0.8 -1.3,-1.6 -1.7,-2.6 -0.4,-1 -0.6,-2.1 -0.6,-3.2 0,-1.2 0.2,-2.2 0.6,-3.3 0.4,-1 1,-1.9 1.7,-2.7 0.7,-0.8 1.6,-1.4 2.5,-1.8 0.9,-0.4 2,-0.7 3.1,-0.7 1.2,0 2.3,0.2 3.2,0.7 z m -1,13.1 C 62.9,40 63.5,39.6 64,39 c 0.5,-0.5 0.9,-1.1 1.2,-1.9 0.3,-0.7 0.4,-1.5 0.4,-2.3 0,-0.8 -0.1,-1.6 -0.4,-2.3 -0.3,-0.7 -0.7,-1.4 -1.2,-1.9 -0.5,-0.5 -1.1,-1 -1.7,-1.3 -0.6,-0.3 -1.3,-0.5 -2.1,-0.5 -0.7,0 -1.4,0.2 -2.1,0.5 -0.6,0.3 -1.2,0.7 -1.7,1.3 -0.5,0.5 -0.9,1.2 -1.1,1.9 -0.3,0.7 -0.4,1.5 -0.4,2.3 0,0.8 0.1,1.6 0.4,2.3 0.3,0.7 0.7,1.3 1.1,1.9 0.5,0.5 1,0.9 1.7,1.3 0.6,0.3 1.3,0.5 2.1,0.5 0.7,0 1.4,-0.2 2.1,-0.5 z"
         id="path4311"
         inkscape:connector-curvature="0" /></g><path
       d="M 10.7,46.8 C 10.3,46.8 9.8,46.7 9.5,46.5 8.6,46 8.1,45.2 8.1,44.2 l 0,-10.6 c 0,-1.5 1.2,-2.6 2.6,-2.6 1.4,0 2.6,1.2 2.6,2.6 l 0,5.6 8.4,-5.6 L 9.3,25.3 C 8.1,24.5 7.8,22.9 8.6,21.7 9.4,20.5 11,20.2 12.2,21 L 28,31.4 c 0.7,0.5 1.2,1.3 1.2,2.2 0,0.9 -0.4,1.7 -1.2,2.2 L 12.2,46.3 c -0.5,0.3 -1,0.5 -1.5,0.5 z"
       id="path4313"
       inkscape:connector-curvature="0" /><g
       id="g4315"><path
         d="m 68.6,23.7 c -0.1,0.2 -0.2,0.3 -0.3,0.4 -0.1,0.1 -0.3,0.2 -0.4,0.3 -0.2,0.1 -0.3,0.1 -0.5,0.1 -0.2,0 -0.4,0 -0.5,-0.1 -0.2,-0.1 -0.3,-0.2 -0.4,-0.3 -0.1,-0.1 -0.2,-0.3 -0.3,-0.4 -0.1,-0.2 -0.1,-0.3 -0.1,-0.5 0,-0.2 0,-0.4 0.1,-0.5 0.1,-0.2 0.2,-0.3 0.3,-0.4 0.1,-0.1 0.3,-0.2 0.4,-0.3 0.2,-0.1 0.3,-0.1 0.5,-0.1 0.2,0 0.4,0 0.5,0.1 0.2,0.1 0.3,0.2 0.4,0.3 0.1,0.1 0.2,0.3 0.3,0.4 0.1,0.2 0.1,0.3 0.1,0.5 0,0.1 0,0.3 -0.1,0.5 z m -0.2,-1 c -0.1,-0.1 -0.1,-0.2 -0.2,-0.3 -0.1,-0.1 -0.2,-0.2 -0.3,-0.2 -0.1,-0.1 -0.3,-0.1 -0.4,-0.1 -0.1,0 -0.3,0 -0.4,0.1 -0.1,0.1 -0.2,0.1 -0.3,0.2 -0.1,0.1 -0.2,0.2 -0.2,0.3 -0.1,0.1 -0.1,0.3 -0.1,0.4 0,0.2 0,0.3 0.1,0.4 0.1,0.1 0.1,0.2 0.2,0.3 0.1,0.1 0.2,0.2 0.3,0.2 0.1,0.1 0.3,0.1 0.4,0.1 0.1,0 0.3,0 0.4,-0.1 0.1,-0.1 0.2,-0.1 0.3,-0.2 0.1,-0.1 0.2,-0.2 0.2,-0.3 0.1,-0.1 0.1,-0.3 0.1,-0.4 0,-0.1 -0.1,-0.3 -0.1,-0.4 z m -0.6,1.1 -0.3,-0.5 -0.4,0 0,0.5 -0.3,0 0,-1.5 0.7,0 c 0.2,0 0.3,0 0.4,0.1 0.1,0.1 0.1,0.2 0.1,0.4 0,0.1 0,0.2 -0.1,0.3 -0.1,0.1 -0.1,0.1 -0.2,0.2 l 0.3,0.5 -0.2,0 z m -0.2,-0.7 c 0.1,0 0.1,0 0.2,0 0,0 0.1,-0.1 0.1,-0.2 0,-0.1 0,-0.1 -0.1,-0.2 0,0 -0.1,-0.1 -0.2,-0.1 l -0.4,0 0,0.5 0.4,0 z"
         id="path4317"
         inkscape:connector-curvature="0" /></g></g><g
     id="g4319"
     transform="translate(-3.9416135,-2.7756349)"><g
       id="g4321"><line
         class="st80"
         x1="73.5"
         y1="35"
         x2="82.5"
         y2="35"
         id="line4323"
         style="fill:none;stroke:#00bfc0;stroke-miterlimit:10" /><g
         id="g4325"><polygon
           class="st12"
           points="78,38.4 81.6,35 78,31.6 78.7,30.9 83.1,35 78.7,39.1 "
           id="polygon4327"
           style="fill:#00bfc0" /></g></g></g></svg>